
<svg width="145" height="130" viewBox="0 0 145 130" xmlns="http://www.w3.org/2000/svg" class="text-inherit"><path fill="#09F8C2" d="M43.5062 119.984C37.0506 113.306 31.0402 105.96 25.0297 98.8365C18.5741 91.713 11.6732 84.3669 7.22102 75.6852C-1.90593 60.5478 -1.46072 39.1774 10.5602 25.3756C17.2384 18.2522 26.588 13.8 36.3828 12.4643C64.4315 9.79303 79.5688 31.8313 82.2401 56.9861C85.1341 69.4522 86.9149 90.3774 100.049 95.72C118.08 101.73 131.437 85.48 130.101 67.8939C129.433 61.4382 126.985 54.76 123.868 48.9722C120.751 44.0748 117.19 38.2869 115.631 32.7217C112.96 28.2695 110.289 24.04 107.172 19.8104C110.289 22.0365 113.183 24.4852 116.077 26.9339C116.745 27.6017 118.525 29.3826 119.193 29.8278C123.423 34.9478 128.098 38.0643 132.104 43.1843C146.574 60.5478 149.245 85.7026 134.108 103.734C116.299 123.769 83.1306 119.984 70.8871 95.9426C64.8767 84.5895 62.428 72.7913 60.2019 60.5478C59.0888 53.4243 58.421 48.3043 55.5271 42.7391C51.0749 33.3895 39.7219 30.0504 30.3723 34.0574C28.1462 34.9478 26.1428 35.8382 24.1393 37.1739C22.581 38.5095 20.1323 41.4035 18.7967 44.0748C10.7828 59.4348 19.0193 76.5756 26.8106 90.6C32.1532 100.395 37.941 110.19 43.5062 119.762V119.984Z"></path><path fill="#09F8C2" d="M48.1812 124.659C47.2907 124.214 46.1777 123.546 45.5099 122.878C45.7325 123.991 45.9551 125.104 46.1777 125.995C46.1777 127.33 46.1777 128.443 46.1777 129.779C46.1777 127.998 45.7325 126.217 45.0647 124.659C44.842 123.991 44.3968 123.323 44.1742 122.656L40.6125 117.09C40.6125 117.09 40.6125 117.09 40.3899 117.09C36.1603 118.649 30.3725 113.083 29.2594 111.97C29.2594 111.97 29.0368 111.748 28.8142 111.748C13.6768 103.957 15.2351 95.4974 15.6803 93.4939C15.6803 93.2713 15.6803 91.713 16.3481 90.8226C16.3481 90.8226 17.016 89.7096 16.7933 89.4869L23.6942 84.5896C23.6942 84.5896 23.6942 84.5896 25.0299 84.3669H25.4751C26.1429 84.3669 27.9238 84.3669 28.369 84.3669C30.3725 84.3669 38.8316 86.3704 40.8351 103.066V103.511C41.5029 104.847 44.842 112.416 41.9481 115.755V115.977L45.9551 121.32C46.4003 121.988 46.8455 122.433 47.5133 122.878C48.849 123.991 50.4073 125.104 51.9655 125.772C50.8525 125.327 49.5168 124.882 48.4038 124.437L48.1812 124.659Z"></path><path fill="#09F8C2" d="M129.656 36.7287C129.656 36.9513 129.656 38.5096 128.988 39.4C128.988 39.8452 128.765 40.0678 128.543 40.2904L120.974 45.8557C120.529 45.8557 120.084 45.8557 119.638 45.8557C118.748 45.8557 117.19 45.4104 116.967 45.4104C114.964 45.4104 106.505 43.6296 104.501 26.9339V26.4887C103.833 25.153 100.494 17.5844 103.388 14.2452V14.0226L99.3811 8.68C98.9358 8.01218 98.4906 7.56696 97.8228 7.12174C96.4871 6.0087 94.9289 5.11827 93.3706 4.22783C94.4836 4.67305 95.8193 5.11826 96.9323 5.56348C97.8228 6.0087 98.9358 6.67653 99.6037 7.34435C99.381 6.23131 99.1584 5.11827 98.9358 4.22783C98.9358 2.89218 98.7132 1.77913 98.9358 0.443481C98.9358 2.22435 99.381 4.00522 100.049 5.56348C100.271 6.23131 100.717 6.89913 100.939 7.56696L104.501 13.1322C104.501 13.1322 104.501 13.1322 104.724 13.1322C108.953 11.5739 114.741 17.1391 115.854 18.2522C115.854 18.2522 116.077 18.4748 116.299 18.4748C131.214 26.2661 129.878 34.7252 129.433 36.7287H129.656Z"></path></svg>